<?xml version="1.0" encoding="iso-8859-1"?>
<!-- Generator: Adobe Illustrator 19.0.0, SVG Export Plug-In . SVG Version: 6.00 Build 0)  -->
<svg version="1.1" id="Capa_1" xmlns="http://www.w3.org/2000/svg" xmlns:xlink="http://www.w3.org/1999/xlink" x="0px" y="0px"
	 viewBox="0 0 512 512" style="enable-background:new 0 0 512 512;" xml:space="preserve">
<g>
	<g>
		<path d="M494.771,295.688C502.854,284.281,512,271.354,512,256s-9.146-28.281-17.229-39.688
			c-5.302-7.49-10.313-14.563-12.052-21.063c-1.854-6.969-1.052-15.885-0.208-25.333c1.292-14.333,2.615-29.167-4.781-41.948
			c-7.5-12.979-21.74-19.542-34.302-25.323c-8.51-3.927-16.542-7.625-21.49-12.573c-4.948-4.948-8.646-12.99-12.573-21.49
			c-5.792-12.563-12.354-26.802-25.323-34.302c-12.802-7.406-27.625-6.063-41.958-4.792c-9.448,0.833-18.354,1.635-25.323-0.208
			c-6.51-1.74-13.583-6.75-21.073-12.052C284.281,9.146,271.354,0,256,0s-28.281,9.146-39.688,17.229
			c-7.49,5.302-14.563,10.313-21.063,12.052c-6.99,1.844-15.906,1.042-25.333,0.208c-14.323-1.281-29.146-2.625-41.948,4.781
			c-12.979,7.5-19.542,21.74-25.323,34.302c-3.927,8.51-7.625,16.542-12.573,21.49c-4.948,4.948-12.99,8.646-21.49,12.573
			c-12.563,5.792-26.802,12.354-34.302,25.323c-7.396,12.781-6.073,27.615-4.792,41.958c0.854,9.438,1.646,18.365-0.208,25.323
			c-1.74,6.51-6.75,13.583-12.052,21.073C9.146,227.719,0,240.646,0,256s9.146,28.281,17.229,39.688
			c5.302,7.49,10.313,14.563,12.052,21.063c1.854,6.969,1.052,15.885,0.208,25.333c-1.292,14.333-2.615,29.167,4.781,41.948
			c7.5,12.979,21.74,19.542,34.302,25.323c8.51,3.927,16.542,7.625,21.49,12.573c4.948,4.948,8.646,12.99,12.573,21.49
			c5.792,12.563,12.354,26.802,25.323,34.302c12.792,7.396,27.615,6.063,41.958,4.792c9.427-0.865,18.344-1.667,25.323,0.208
			c6.51,1.74,13.583,6.75,21.073,12.052C227.719,502.854,240.646,512,256,512s28.281-9.146,39.688-17.229
			c7.49-5.302,14.563-10.313,21.063-12.052c6.948-1.875,15.885-1.073,25.333-0.208c14.323,1.292,29.146,2.635,41.948-4.781
			c12.979-7.5,19.542-21.74,25.323-34.302c3.927-8.51,7.625-16.542,12.573-21.49c4.948-4.948,12.99-8.646,21.49-12.573
			c12.563-5.792,26.802-12.354,34.302-25.323c7.396-12.781,6.073-27.615,4.792-41.958c-0.854-9.438-1.646-18.365,0.208-25.323
			C484.458,310.25,489.469,303.177,494.771,295.688z M266.667,404.249v33.085c0,5.896-4.771,10.667-10.667,10.667
			s-10.667-4.771-10.667-10.667v-33.085c-53.75-5.474-96-50.725-96-106.207c0-81.792,94.25-203.469,98.26-208.604
			c4.042-5.188,12.771-5.188,16.813,0c4.01,5.135,98.26,126.813,98.26,208.604C362.667,353.523,320.417,398.775,266.667,404.249z"/>
	</g>
</g>
<g>
</g>
<g>
</g>
<g>
</g>
<g>
</g>
<g>
</g>
<g>
</g>
<g>
</g>
<g>
</g>
<g>
</g>
<g>
</g>
<g>
</g>
<g>
</g>
<g>
</g>
<g>
</g>
<g>
</g>
</svg>
