<?xml version="1.0"?>
<svg xmlns="http://www.w3.org/2000/svg" id="Solid" viewBox="0 0 512 512" width="512" height="512"><path d="M256,378.245,273.194,392H238.806ZM232,264h64l-32-42.667Zm-80.635,0H212l10.673-14.231L192,205.95Zm157.484-9.535L316,264h40.687L328,235.313ZM352,389.755l35-28a8,8,0,0,1,10,0l35,28V344H352ZM374.806,392h34.388L392,378.245ZM216,389.755l35-28a8,8,0,0,1,10,0l35,28V344H216ZM32,104H480V464a8.009,8.009,0,0,1-8,8H40a8.009,8.009,0,0,1-8-8ZM160,432a8,8,0,0,0-8-8H88a8,8,0,0,0,0,16h64A8,8,0,0,0,160,432Zm136,0a8,8,0,0,0-8-8H224a8,8,0,0,0,0,16h64A8,8,0,0,0,296,432Zm16-96a8,8,0,0,0-8-8H208a8,8,0,0,0-8,8v64a8,8,0,0,0,8,8h96a8,8,0,0,0,8-8Zm-88-24a8,8,0,1,0-8-8A8,8,0,0,0,224,312Zm32,0a8,8,0,1,0-8-8A8,8,0,0,0,256,312Zm32,0a8,8,0,1,0-8-8A8,8,0,0,0,288,312ZM432,432a8,8,0,0,0-8-8H360a8,8,0,0,0,0,16h64A8,8,0,0,0,432,432Zm16-96a8,8,0,0,0-8-8H344a8,8,0,0,0-8,8v64a8,8,0,0,0,8,8h96a8,8,0,0,0,8-8ZM64,272a8,8,0,0,0,8,8H440a8,8,0,0,0,8-8V144a8,8,0,0,0-8-8H72a8,8,0,0,0-8,8Zm0,128a8,8,0,0,0,8,8h96a8,8,0,0,0,8-8V336a8,8,0,0,0-8-8H72a8,8,0,0,0-8,8ZM480,48V88H32V48a8.009,8.009,0,0,1,8-8H472A8.009,8.009,0,0,1,480,48ZM64,64a8,8,0,1,0-8,8A8,8,0,0,0,64,64Zm32,0a8,8,0,1,0-8,8A8,8,0,0,0,96,64Zm32,0a8,8,0,1,0-8,8A8,8,0,0,0,128,64Zm3.835,200H80V152H432V264H379.313l-45.656-45.657a8,8,0,0,0-11.314,0l-23.192,23.192L270.4,203.2a8,8,0,0,0-12.8,0l-24.825,33.1-34.221-48.888a8,8,0,0,0-13.108,0ZM296,192a8,8,0,1,0,8-8A8,8,0,0,0,296,192ZM125,361.753l35,28V344H80v45.755l35-28A8,8,0,0,1,125,361.753ZM102.806,392h34.388L120,378.245Z"/></svg>
