<svg id="Solid" enable-background="new 0 0 512 512" height="512" viewBox="0 0 512 512" width="512" xmlns="http://www.w3.org/2000/svg"><path d="m304 176c0-32.2 16.2-62.2 43-80h-25.3c-16 15.6-27 35.7-31.4 57.6-.8 3.7-4 6.4-7.8 6.4h-52.8c-3.8 0-7.1-2.7-7.8-6.4-4.4-21.9-15.4-42-31.4-57.6h-25.5c44.2 29.2 56.3 88.8 27.1 133s-88.8 56.3-133 27.1c-3.4-2.2-6.6-4.6-9.6-7.3l17.6 135.7c2.4 19.7 20.4 33.6 40 31.2 14.3-1.8 26.2-12 30.1-25.9l32.8-112c1-3.4 4.1-5.8 7.7-5.8h156.7c3.6 0 6.7 2.3 7.7 5.8l32.7 112c5.3 19.1 25.1 30.3 44.2 24.9 13.9-3.9 24.2-15.8 26-30.1l17.6-135.7c-40.2 34.5-100.8 30-135.3-10.2-15.1-17.5-23.3-39.7-23.3-62.7zm-64 80h-24c-4.4 0-8-3.6-8-8s3.6-8 8-8h24c4.4 0 8 3.6 8 8s-3.6 8-8 8zm-8-56c0-13.3 10.7-24 24-24s24 10.7 24 24-10.7 24-24 24c-13.2 0-24-10.8-24-24zm64 56h-24c-4.4 0-8-3.6-8-8s3.6-8 8-8h24c4.4 0 8 3.6 8 8s-3.6 8-8 8z"/><circle cx="400" cy="136" r="8"/><circle cx="256" cy="200" r="8"/><circle cx="360" cy="176" r="8"/><path d="m276 144c4.5-17.5 12.7-33.9 24-48h-88.1c11.4 14.1 19.5 30.5 24 48z"/><path d="m112 256c44.2 0 80-35.8 80-80s-35.8-80-80-80-80 35.8-80 80c.1 44.2 35.8 79.9 80 80zm-48-96c0-4.4 3.6-8 8-8h16v-16c0-4.4 3.6-8 8-8h32c4.4 0 8 3.6 8 8v16h16c4.4 0 8 3.6 8 8v32c0 4.4-3.6 8-8 8h-16v16c0 4.4-3.6 8-8 8h-32c-4.4 0-8-3.6-8-8v-16h-16c-4.4 0-8-3.6-8-8z"/><path d="m104 192v16h16v-16c0-4.4 3.6-8 8-8h16v-16h-16c-4.4 0-8-3.6-8-8v-16h-16v16c0 4.4-3.6 8-8 8h-16v16h16c4.4 0 8 3.6 8 8z"/><circle cx="440" cy="176" r="8"/><circle cx="400" cy="216" r="8"/><path d="m400 96c-44.2 0-80 35.8-80 80s35.8 80 80 80 80-35.8 80-80c-.1-44.2-35.8-79.9-80-80zm0 16c13.3 0 24 10.7 24 24s-10.7 24-24 24-24-10.7-24-24c0-13.2 10.8-24 24-24zm-64 64c0-13.3 10.7-24 24-24s24 10.7 24 24-10.7 24-24 24c-13.2 0-24-10.8-24-24zm64 64c-13.3 0-24-10.7-24-24s10.7-24 24-24 24 10.7 24 24c0 13.2-10.8 24-24 24zm64-64c0 13.3-10.7 24-24 24s-24-10.7-24-24 10.7-24 24-24c13.2 0 24 10.8 24 24z"/></svg>