<svg id="Capa_1" enable-background="new 0 0 512.064 512.064" height="512" viewBox="0 0 512.064 512.064" width="512" xmlns="http://www.w3.org/2000/svg"><g><path d="m184.735 229.384c-18.36-1.94-35.75-3.11-48.71-3.74-26.21-216.26-12.46-224.2-2.81-225.58 16.93-2.42 36.8 64.66 50.73 122.7-4.22 8.19-6.59 17.48-6.59 27.3 0 27.37 2.66 55.72 7.38 79.32z"/><path d="m400.665 235.234c-6.34 38.04-28.31 169.83-28.31 169.83v92c0 8.28-6.72 15-15 15h-180c-8.28 0-15-6.71-15-14.99 0-23.99.01-69.57.05-82.02-.05-.07-83.21-110.93-83.21-110.93-15.97-19.37-2.27-49.06 23.16-49.06 23.01 0 150 7.13 150 30 0 9.38-41.79 17.75-75.35 23.25-8.244 1.346-13.631 9.116-12.39 17.08 1.27 8.24 9.02 13.88 17.25 12.53 20.64-3.39 54.22-9.28 73.2-17.52 15.32-6.64 22.41-15.61 25.39-24.04 5.89 2.75 11.69 3.7 16.9 3.7 50.29 0 59.8-82.72 59.99-133.39 23.06-42.44 57.47-98.48 75.01-91.46 26.51 10.61-26.72 147.25-31.69 160.02z"/><path d="m297.355 270.064c16.569 0 30-45 30-105 0-16.569-13.431-30-30-30s-30 13.431-30 30c0 60 13.431 105 30 105z"/><path d="m215.825 231.244c13.258 1.669 28.186 4.034 41.25 7.1 6.3-22.98 10.28-55.63 10.28-88.28 0-16.57-13.43-30-30-30s-30 13.43-30 30c0 31.429 3.657 60.644 8.47 81.18z"/></g></svg>