<svg id="Layer_1" enable-background="new 0 0 511.533 511.533" height="512" viewBox="0 0 511.533 511.533" width="512" xmlns="http://www.w3.org/2000/svg"><g><path d="m213.358 197.528-26.202 80.641 68.597 49.839 68.597-49.839-26.202-80.641z"/><path d="m476.238 385.572c18.672-31.593 30.279-66.864 33.983-103.843l-54.709 39.558z"/><path d="m325.682 185.185 28.225 86.869 81.403 26.821 75.934-54.906c-2.076-46.027-16.287-89.847-41.086-127.775l-93.887-.16z"/><path d="m240.753 354.192-73.886-53.681-81.526 26.404-28.989 89.047c5.774 7.16 11.95 14.062 18.547 20.659 26.005 26.005 56.629 45.708 90.016 58.37l75.838-55.099z"/><path d="m153.439 21.22c-28.935 12.631-55.545 30.696-78.541 53.692-3.482 3.482-6.838 7.056-10.092 10.699l67.592.077z"/><path d="m1.21 281.005c3.6 36.998 15.114 72.298 33.69 103.937l20.908-64.221z"/><path d="m210.13 167.528h91.298l50.611-69.182-28.9-89.413c-21.691-5.885-44.303-8.933-67.386-8.933-22.834 0-45.207 2.988-66.687 8.749l-29.16 89.347z"/><path d="m157.626 271.97 28.215-86.836-50.231-69.442-93.865-.107c-24.914 37.867-39.252 81.647-41.456 127.653l75.802 55.139z"/><path d="m344.567 300.563-73.814 53.629v85.7l75.837 55.1c33.387-12.662 64.012-32.365 90.017-58.37 6.422-6.422 12.448-13.133 18.091-20.09l-28.743-89.152z"/><path d="m447.18 86.154c-3.404-3.832-6.918-7.588-10.573-11.242-22.82-22.82-49.197-40.79-77.875-53.407l20.858 64.534z"/><path d="m201.189 505.718c17.729 3.833 35.993 5.815 54.564 5.815s36.835-1.981 54.564-5.815l-54.564-39.643z"/></g></svg>