<svg id="Capa_1" enable-background="new 0 0 512 512" height="512" viewBox="0 0 512 512" width="512" xmlns="http://www.w3.org/2000/svg"><g><circle cx="256" cy="256" r="45"/><path d="m256 391c-13.785 0-25 11.215-25 25v3.003c8.442 1.327 16.812 1.997 25 1.997s16.558-.67 25-1.997v-3.003c0-13.785-11.215-25-25-25z"/><path d="m123.906 200.148c6.45-1.729 11.842-5.865 15.181-11.648 6.892-11.938 2.787-27.259-9.151-34.151l-2.519-1.454c-10.572 13.143-19.104 27.79-25.168 43.204l2.687 1.552c5.784 3.338 12.523 4.227 18.97 2.497z"/><path d="m123.906 311.852c-6.449-1.725-13.187-.839-18.971 2.498l-2.687 1.551c6.063 15.415 14.597 30.063 25.169 43.205l2.519-1.454c11.938-6.893 16.042-22.213 9.15-34.151-3.338-5.784-8.73-9.921-15.18-11.649z"/><path d="m388.094 200.148c6.451 1.727 13.188.84 18.971-2.498l2.687-1.552c-6.063-15.414-14.596-30.062-25.168-43.204l-2.519 1.454c-11.938 6.893-16.043 22.213-9.151 34.151 3.338 5.784 8.73 9.921 15.18 11.649z"/><path d="m256 0c-141.159 0-256 114.841-256 256s114.841 256 256 256 256-114.841 256-256-114.841-256-256-256zm111.064 128.368 13.249-7.649c6.059-3.499 13.733-2.345 18.494 2.786 20.005 21.554 35.06 47.471 43.536 74.95 2.063 6.688-.772 13.913-6.833 17.412l-13.446 7.764c-8.639 4.987-18.084 7.358-27.408 7.358-19.023 0-37.548-9.864-47.724-27.489-15.162-26.265-6.131-59.969 20.132-75.132zm-166.064-47.753c0-7.004 4.847-13.075 11.676-14.627 14.563-3.309 29.139-4.988 43.324-4.988s28.761 1.679 43.324 4.988c6.829 1.552 11.676 7.623 11.676 14.627v15.385c0 30.327-24.673 55-55 55s-55-24.673-55-55zm-131.344 117.84c8.477-27.479 23.531-53.396 43.536-74.95 4.761-5.129 12.437-6.284 18.494-2.786l13.249 7.649c26.264 15.163 35.295 48.867 20.132 75.132-10.175 17.624-28.702 27.489-47.724 27.489-9.326 0-18.768-2.37-27.408-7.358l-13.446-7.764c-6.06-3.499-8.896-10.724-6.833-17.412zm75.281 185.177-13.249 7.649c-2.344 1.354-4.93 2.01-7.494 2.011-4.066 0-8.081-1.651-11-4.797-20.005-21.553-35.061-47.471-43.538-74.951-2.062-6.688.773-13.913 6.834-17.412l13.446-7.763c26.265-15.161 59.969-6.133 75.132 20.131 15.162 26.265 6.131 59.968-20.131 75.132zm166.063 47.753c0 7.004-4.847 13.075-11.676 14.627-14.563 3.309-29.139 4.988-43.324 4.988s-28.761-1.679-43.324-4.988c-6.829-1.552-11.676-7.623-11.676-14.627v-15.385c0-30.327 24.673-55 55-55s55 24.673 55 55zm-55-100.385c-41.355 0-75-33.645-75-75s33.645-75 75-75 75 33.645 75 75-33.645 75-75 75zm142.807 57.495c-2.919 3.146-6.935 4.797-11 4.797-2.565 0-5.15-.657-7.494-2.011l-13.249-7.649c-26.263-15.164-35.294-48.867-20.131-75.132 15.163-26.266 48.866-35.294 75.132-20.131l13.446 7.763c6.061 3.499 8.896 10.725 6.834 17.412-8.478 27.48-23.533 53.398-43.538 74.951z"/><path d="m388.094 311.852c-6.45 1.729-11.842 5.865-15.181 11.648-6.892 11.938-2.787 27.259 9.15 34.151l2.519 1.454c10.572-13.142 19.105-27.79 25.169-43.205l-2.687-1.551c-5.782-3.338-12.521-4.224-18.97-2.497z"/><path d="m256 121c13.785 0 25-11.215 25-25v-3.003c-8.442-1.327-16.812-1.997-25-1.997s-16.558.67-25 1.997v3.003c0 13.785 11.215 25 25 25z"/><g><path d="m485.762 426.114c-6.721 9.054-13.966 17.696-21.686 25.886h2.924c8.271 0 15 6.729 15 15s-6.729 15-15 15h-10c-8.284 0-15 6.716-15 15s6.716 15 15 15h10c24.813 0 45-20.187 45-45 0-18.119-10.769-33.76-26.238-40.886z"/></g></g></svg>