<svg height="448pt" viewBox="0 -32 448 448" width="448pt" xmlns="http://www.w3.org/2000/svg"><path d="m424 64h-90.71875l-2.800781 2.800781c3.605469 6.769531 6.550781 13.867188 8.800781 21.199219h20.71875c4.417969 0 8 3.582031 8 8v48c0 4.417969-3.582031 8-8 8h-20.71875c-2.25 7.332031-5.195312 14.429688-8.800781 21.199219l14.640625 14.722656c1.523437 1.460937 2.390625 3.484375 2.398437 5.597656-.007812 2.136719-.871093 4.183594-2.398437 5.679688l-33.921875 33.921875c-3.121094 3.101562-8.160157 3.101562-11.277344 0l-14.722656-14.640625c-6.769531 3.605469-13.867188 6.550781-21.199219 8.800781v20.71875c0 4.417969-3.582031 8-8 8h-48c-4.417969 0-8-3.582031-8-8v-20.71875c-7.332031-2.25-14.429688-5.195312-21.199219-8.800781l-14.722656 14.640625c-3.117187 3.101562-8.15625 3.101562-11.277344 0l-33.921875-33.921875c-1.527344-1.496094-2.390625-3.542969-2.398437-5.679688.007812-2.113281.875-4.136719 2.398437-5.597656l14.640625-14.722656c-3.605469-6.769531-6.550781-13.867188-8.800781-21.199219h-20.71875c-4.417969 0-8-3.582031-8-8v-48c0-4.417969 3.582031-8 8-8h20.71875c2.25-7.332031 5.195312-14.429688 8.800781-21.199219l-2.800781-2.800781h-106.71875c-4.417969 0-8 3.582031-8 8v264h416v-264c0-4.417969-3.582031-8-8-8zm-376 88h-16v-16h16zm24-56h-24v24h-16v-32c0-4.417969 3.582031-8 8-8h32zm344 216c0 4.417969-3.582031 8-8 8h-32v-16h24v-24h16zm0-48h-16v-16h16zm0 0"/><path d="m280 120c0 26.507812-21.492188 48-48 48s-48-21.492188-48-48 21.492188-48 48-48 48 21.492188 48 48zm0 0"/><path d="m333.121094 104c-3.714844.027344-6.945313-2.539062-7.761719-6.160156-2.394531-9.941406-6.335937-19.441406-11.679687-28.160156-1.992188-3.132813-1.523438-7.234376 1.121093-9.839844l13.359375-13.359375-22.640625-22.640625-13.359375 13.359375c-2.605468 2.644531-6.707031 3.113281-9.839844 1.121093-8.71875-5.34375-18.21875-9.285156-28.160156-11.679687-3.621094-.816406-6.1875-4.046875-6.160156-7.761719v-18.878906h-32v18.878906c.027344 3.714844-2.539062 6.945313-6.160156 7.761719-9.941406 2.394531-19.441406 6.335937-28.160156 11.679687-3.132813 1.992188-7.234376 1.523438-9.839844-1.121093l-13.359375-13.359375-22.640625 22.640625 13.359375 13.359375c2.644531 2.605468 3.113281 6.707031 1.121093 9.839844-5.34375 8.71875-9.285156 18.21875-11.679687 28.160156-.816406 3.621094-4.046875 6.1875-7.761719 6.160156h-18.878906v32h18.878906c3.714844-.027344 6.945313 2.539062 7.761719 6.160156 2.394531 9.941406 6.335937 19.441406 11.679687 28.160156 1.992188 3.132813 1.523438 7.234376-1.121093 9.839844l-13.359375 13.359375 22.640625 22.640625 13.359375-13.359375c2.605468-2.644531 6.707031-3.113281 9.839844-1.121093 8.71875 5.34375 18.21875 9.285156 28.160156 11.679687 3.621094.816406 6.1875 4.046875 6.160156 7.761719v18.878906h32v-18.878906c-.027344-3.714844 2.539062-6.945313 6.160156-7.761719 9.941406-2.394531 19.441406-6.335937 28.160156-11.679687 3.132813-1.992188 7.234376-1.523438 9.839844 1.121093l13.359375 13.359375 22.640625-22.640625-13.359375-13.359375c-2.644531-2.605468-3.113281-6.707031-1.121093-9.839844 5.34375-8.71875 9.285156-18.21875 11.679687-28.160156.816406-3.621094 4.046875-6.1875 7.761719-6.160156h18.878906v-32zm-101.121094 80c-35.347656 0-64-28.652344-64-64s28.652344-64 64-64 64 28.652344 64 64c-.046875 35.324219-28.675781 63.953125-64 64zm0 0"/><path d="m0 352v24c0 4.417969 3.582031 8 8 8h432c4.417969 0 8-3.582031 8-8v-24h-184v8c0 4.417969-3.582031 8-8 8h-64c-4.417969 0-8-3.582031-8-8v-8zm0 0"/></svg>